<mxfile host="app.diagrams.net" modified="2021-12-22T22:48:20.132Z" agent="5.0 (X11; Linux x86_64) AppleWebKit/537.36 (KHTML, like Gecko) Chrome/96.0.4664.110 Safari/537.36" etag="ZN0Flx0ovW0Yg1N3VPX3" version="16.0.3" type="github">
  <diagram id="VQBJ52Cbb508mhS4Gt7y" name="Page-1">
    <mxGraphModel dx="796" dy="461" grid="1" gridSize="10" guides="1" tooltips="1" connect="1" arrows="1" fold="1" page="1" pageScale="1" pageWidth="850" pageHeight="1100" math="0" shadow="0">
      <root>
        <mxCell id="0" />
        <mxCell id="1" parent="0" />
        <mxCell id="3ofR3fPfTm2XNmkLhLG5-1" value="Community member" style="shape=umlActor;verticalLabelPosition=bottom;verticalAlign=top;html=1;outlineConnect=0;" parent="1" vertex="1">
          <mxGeometry x="40" y="220" width="30" height="60" as="geometry" />
        </mxCell>
        <mxCell id="3ofR3fPfTm2XNmkLhLG5-2" value="D" style="shape=umlActor;verticalLabelPosition=bottom;verticalAlign=top;html=1;outlineConnect=0;" parent="1" vertex="1">
          <mxGeometry x="680" y="180" width="30" height="60" as="geometry" />
        </mxCell>
        <mxCell id="3ofR3fPfTm2XNmkLhLG5-4" value="" style="whiteSpace=wrap;html=1;aspect=fixed;" parent="1" vertex="1">
          <mxGeometry x="150" y="70" width="460" height="460" as="geometry" />
        </mxCell>
        <mxCell id="3ofR3fPfTm2XNmkLhLG5-6" value="We Safe" style="rounded=0;whiteSpace=wrap;html=1;" parent="1" vertex="1">
          <mxGeometry x="230" y="40" width="180" height="30" as="geometry" />
        </mxCell>
        <mxCell id="3ofR3fPfTm2XNmkLhLG5-7" value="Login" style="ellipse;whiteSpace=wrap;html=1;" parent="1" vertex="1">
          <mxGeometry x="360" y="90" width="70" height="40" as="geometry" />
        </mxCell>
        <mxCell id="3ofR3fPfTm2XNmkLhLG5-8" value="register" style="ellipse;whiteSpace=wrap;html=1;" parent="1" vertex="1">
          <mxGeometry x="180" y="380" width="120" height="30" as="geometry" />
        </mxCell>
        <mxCell id="3ofR3fPfTm2XNmkLhLG5-9" value="Actor" style="shape=umlActor;verticalLabelPosition=bottom;verticalAlign=top;html=1;outlineConnect=0;" parent="1" vertex="1">
          <mxGeometry x="680" y="350" width="30" height="60" as="geometry" />
        </mxCell>
        <mxCell id="3ofR3fPfTm2XNmkLhLG5-10" value="report with evidence" style="ellipse;whiteSpace=wrap;html=1;" parent="1" vertex="1">
          <mxGeometry x="190" y="200" width="120" height="30" as="geometry" />
        </mxCell>
        <mxCell id="W4rk2TajlGFxyorMyBDT-1" value="Live stream" style="ellipse;whiteSpace=wrap;html=1;" vertex="1" parent="1">
          <mxGeometry x="190" y="250" width="120" height="30" as="geometry" />
        </mxCell>
        <mxCell id="W4rk2TajlGFxyorMyBDT-39" style="edgeStyle=none;rounded=0;orthogonalLoop=1;jettySize=auto;html=1;entryX=0.3;entryY=1.025;entryDx=0;entryDy=0;entryPerimeter=0;dashed=1;" edge="1" parent="1" source="W4rk2TajlGFxyorMyBDT-2" target="3ofR3fPfTm2XNmkLhLG5-7">
          <mxGeometry relative="1" as="geometry" />
        </mxCell>
        <mxCell id="W4rk2TajlGFxyorMyBDT-40" value="INCLUDES" style="edgeLabel;html=1;align=center;verticalAlign=middle;resizable=0;points=[];" vertex="1" connectable="0" parent="W4rk2TajlGFxyorMyBDT-39">
          <mxGeometry x="0.2747" y="-5" relative="1" as="geometry">
            <mxPoint as="offset" />
          </mxGeometry>
        </mxCell>
        <mxCell id="W4rk2TajlGFxyorMyBDT-2" value="reset password" style="ellipse;whiteSpace=wrap;html=1;" vertex="1" parent="1">
          <mxGeometry x="210" y="150" width="120" height="30" as="geometry" />
        </mxCell>
        <mxCell id="W4rk2TajlGFxyorMyBDT-3" value="see news feed" style="ellipse;whiteSpace=wrap;html=1;" vertex="1" parent="1">
          <mxGeometry x="200" y="440" width="120" height="30" as="geometry" />
        </mxCell>
        <mxCell id="W4rk2TajlGFxyorMyBDT-4" value="See report history" style="ellipse;whiteSpace=wrap;html=1;" vertex="1" parent="1">
          <mxGeometry x="420" y="220" width="120" height="30" as="geometry" />
        </mxCell>
        <mxCell id="W4rk2TajlGFxyorMyBDT-7" value="delete histoy" style="ellipse;whiteSpace=wrap;html=1;" vertex="1" parent="1">
          <mxGeometry x="470" y="270" width="120" height="30" as="geometry" />
        </mxCell>
        <mxCell id="W4rk2TajlGFxyorMyBDT-8" value="See wanted criminals" style="ellipse;whiteSpace=wrap;html=1;" vertex="1" parent="1">
          <mxGeometry x="330" y="280" width="120" height="40" as="geometry" />
        </mxCell>
        <mxCell id="W4rk2TajlGFxyorMyBDT-9" value="see news feed detail" style="ellipse;whiteSpace=wrap;html=1;" vertex="1" parent="1">
          <mxGeometry x="340" y="430" width="120" height="30" as="geometry" />
        </mxCell>
        <mxCell id="W4rk2TajlGFxyorMyBDT-10" value="match image" style="ellipse;whiteSpace=wrap;html=1;" vertex="1" parent="1">
          <mxGeometry x="490" y="330" width="120" height="30" as="geometry" />
        </mxCell>
        <mxCell id="W4rk2TajlGFxyorMyBDT-11" value="capture image" style="ellipse;whiteSpace=wrap;html=1;" vertex="1" parent="1">
          <mxGeometry x="330" y="340" width="120" height="30" as="geometry" />
        </mxCell>
        <mxCell id="W4rk2TajlGFxyorMyBDT-41" style="edgeStyle=none;rounded=0;orthogonalLoop=1;jettySize=auto;html=1;entryX=0.5;entryY=1;entryDx=0;entryDy=0;dashed=1;" edge="1" parent="1" target="3ofR3fPfTm2XNmkLhLG5-7">
          <mxGeometry relative="1" as="geometry">
            <mxPoint x="299.9984033914648" y="212.37922779000166" as="sourcePoint" />
            <mxPoint x="373.06" y="190" as="targetPoint" />
          </mxGeometry>
        </mxCell>
        <mxCell id="W4rk2TajlGFxyorMyBDT-42" value="INCLUDES" style="edgeLabel;html=1;align=center;verticalAlign=middle;resizable=0;points=[];" vertex="1" connectable="0" parent="W4rk2TajlGFxyorMyBDT-41">
          <mxGeometry x="0.2747" y="-5" relative="1" as="geometry">
            <mxPoint as="offset" />
          </mxGeometry>
        </mxCell>
        <mxCell id="W4rk2TajlGFxyorMyBDT-45" style="edgeStyle=none;rounded=0;orthogonalLoop=1;jettySize=auto;html=1;entryX=0.522;entryY=0.13;entryDx=0;entryDy=0;entryPerimeter=0;dashed=1;" edge="1" parent="1" target="3ofR3fPfTm2XNmkLhLG5-4">
          <mxGeometry relative="1" as="geometry">
            <mxPoint x="309.9984033914648" y="269.99922779000167" as="sourcePoint" />
            <mxPoint x="383.06" y="247.62" as="targetPoint" />
          </mxGeometry>
        </mxCell>
        <mxCell id="W4rk2TajlGFxyorMyBDT-46" value="INCLUDES" style="edgeLabel;html=1;align=center;verticalAlign=middle;resizable=0;points=[];" vertex="1" connectable="0" parent="W4rk2TajlGFxyorMyBDT-45">
          <mxGeometry x="0.2747" y="-5" relative="1" as="geometry">
            <mxPoint as="offset" />
          </mxGeometry>
        </mxCell>
        <mxCell id="W4rk2TajlGFxyorMyBDT-48" style="edgeStyle=none;rounded=0;orthogonalLoop=1;jettySize=auto;html=1;entryX=0.522;entryY=0.13;entryDx=0;entryDy=0;entryPerimeter=0;dashed=1;exitX=0.983;exitY=0.725;exitDx=0;exitDy=0;exitPerimeter=0;" edge="1" parent="1" source="W4rk2TajlGFxyorMyBDT-8">
          <mxGeometry relative="1" as="geometry">
            <mxPoint x="319.99840339146476" y="279.99922779000167" as="sourcePoint" />
            <mxPoint x="410.1199999999999" y="149.79999999999995" as="targetPoint" />
          </mxGeometry>
        </mxCell>
        <mxCell id="W4rk2TajlGFxyorMyBDT-49" value="INCLUDES" style="edgeLabel;html=1;align=center;verticalAlign=middle;resizable=0;points=[];" vertex="1" connectable="0" parent="W4rk2TajlGFxyorMyBDT-48">
          <mxGeometry x="0.2747" y="-5" relative="1" as="geometry">
            <mxPoint as="offset" />
          </mxGeometry>
        </mxCell>
      </root>
    </mxGraphModel>
  </diagram>
</mxfile>
